<svg width="32" height="32" viewBox="0 0 32 32" fill="none" xmlns="http://www.w3.org/2000/svg">
<path fill-rule="evenodd" clip-rule="evenodd" d="M17.5152 9.33333C17.8527 9.33333 18.1764 9.46742 18.4151 9.70611C18.6538 9.94479 18.7879 10.2685 18.7879 10.6061V11.8788H14.9293C14.5917 11.8788 14.268 11.7447 14.0293 11.506C13.7907 11.2673 13.6566 10.9436 13.6566 10.6061C13.6566 10.2685 13.7907 9.94479 14.0293 9.70611C14.268 9.46742 14.5917 9.33333 14.9293 9.33333H17.5152ZM20.1212 11.8788V10.6061C20.1212 9.91489 19.8466 9.25203 19.3579 8.7633C18.8692 8.27457 18.2063 8 17.5152 8H14.9293C14.2381 8 13.5753 8.27457 13.0865 8.7633C12.5978 9.25203 12.3232 9.91489 12.3232 10.6061C12.3232 11.2972 12.5978 11.9601 13.0865 12.4488C13.5753 12.9376 14.2381 13.2121 14.9293 13.2121H22.6667V19.6566C22.6667 20.337 22.3964 20.9896 21.9152 21.4708C21.434 21.9519 20.7815 22.2222 20.101 22.2222H12.3434C11.663 22.2222 11.0104 21.9519 10.5292 21.4708C10.0481 20.9896 9.77778 20.337 9.77778 19.6566V13.2121H11.4815V11.8788H8.44444V19.6566C8.44444 20.6906 8.85523 21.6824 9.58643 22.4136C10.3176 23.1448 11.3094 23.5556 12.3434 23.5556H20.101C21.1351 23.5556 22.1268 23.1448 22.858 22.4136C23.5892 21.6824 24 20.6906 24 19.6566V11.8788H20.1212Z" fill="#212121"/>
</svg>
