<svg width="32" height="32" viewBox="0 0 32 32" fill="none" xmlns="http://www.w3.org/2000/svg">
<path fill-rule="evenodd" clip-rule="evenodd" d="M12.6471 10.1448C12.1286 10.433 11.6478 10.7939 11.2209 11.2209C10.5483 11.8934 10.0398 12.6993 9.721 13.5763C9.96668 13.447 10.2314 13.3288 10.5101 13.2216C10.8454 13.0926 11.2091 12.9764 11.5967 12.8744C11.8027 11.965 12.104 11.1375 12.4831 10.4333C12.5358 10.3355 12.5905 10.2392 12.6471 10.1448ZM15.7778 8C13.715 8 11.7367 8.81944 10.2781 10.2781C8.81944 11.7367 8 13.715 8 15.7778C8 17.8406 8.81944 19.8189 10.2781 21.2775C11.7367 22.7361 13.715 23.5556 15.7778 23.5556C17.8406 23.5556 19.8189 22.7361 21.2775 21.2775C22.7361 19.8189 23.5556 17.8406 23.5556 15.7778C23.5556 13.715 22.7361 11.7367 21.2775 10.2781C19.8189 8.81944 17.8406 8 15.7778 8ZM18.9084 10.1448C19.427 10.433 19.9077 10.7939 20.3347 11.2209C21.0072 11.8934 21.5158 12.6993 21.8346 13.5763C21.5889 13.447 21.3242 13.3288 21.0455 13.2216C20.7102 13.0926 20.3464 12.9764 19.9589 12.8744C19.7529 11.965 19.4516 11.1375 19.0725 10.4333C19.0198 10.3355 18.9651 10.2392 18.9084 10.1448ZM18.5052 12.5764C18.3406 12.0134 18.135 11.5048 17.8985 11.0655C17.2529 9.8664 16.4726 9.33333 15.7778 9.33333C15.083 9.33333 14.3027 9.8664 13.6571 11.0655C13.4205 11.5048 13.2149 12.0134 13.0503 12.5764C13.9009 12.4463 14.8213 12.3761 15.7778 12.3761C16.7343 12.3761 17.6547 12.4463 18.5052 12.5764ZM12.7455 13.9813C13.6488 13.8088 14.6782 13.7094 15.7778 13.7094C16.8774 13.7094 17.9068 13.8088 18.8101 13.9813C18.8945 14.5497 18.9402 15.152 18.9402 15.7778C18.9402 16.4036 18.8945 17.0059 18.8101 17.5743C17.9068 17.7467 16.8774 17.8462 15.7778 17.8462C14.6782 17.8462 13.6488 17.7467 12.7455 17.5743C12.6611 17.0059 12.6154 16.4036 12.6154 15.7778C12.6154 15.152 12.6611 14.5497 12.7455 13.9813ZM11.3571 14.3348C11.2296 14.3769 11.1067 14.4207 10.9887 14.4661C10.3901 14.6963 9.95145 14.9541 9.67399 15.2064C9.39673 15.4586 9.33333 15.6526 9.33333 15.7778C9.33333 15.903 9.39673 16.097 9.67399 16.3491C9.95145 16.6014 10.3901 16.8593 10.9887 17.0895C11.1067 17.1349 11.2296 17.1787 11.3571 17.2208C11.3077 16.752 11.2821 16.2695 11.2821 15.7778C11.2821 15.286 11.3077 14.8035 11.3571 14.3348ZM11.5967 18.6811C11.2091 18.5791 10.8454 18.4629 10.5101 18.334C10.2314 18.2268 9.96668 18.1086 9.72101 17.9792C10.0398 18.8563 10.5483 19.6622 11.2209 20.3347C11.6478 20.7617 12.1286 21.1225 12.6471 21.4107C12.5905 21.3163 12.5358 21.2201 12.4831 21.1222C12.104 20.4181 11.8027 19.5905 11.5967 18.6811ZM18.9084 21.4107C19.427 21.1225 19.9077 20.7617 20.3347 20.3347C21.0072 19.6622 21.5157 18.8563 21.8346 17.9792C21.5889 18.1086 21.3242 18.2268 21.0455 18.334C20.7102 18.4629 20.3464 18.5791 19.9589 18.6811C19.7529 19.5905 19.4516 20.4181 19.0725 21.1222C19.0198 21.2201 18.9651 21.3163 18.9084 21.4107ZM18.5052 18.9792C18.3406 19.5422 18.135 20.0508 17.8985 20.4901C17.2529 21.6892 16.4726 22.2222 15.7778 22.2222C15.083 22.2222 14.3027 21.6892 13.6571 20.4901C13.4205 20.0508 13.2149 19.5422 13.0503 18.9792C13.9009 19.1093 14.8213 19.1795 15.7778 19.1795C16.7343 19.1795 17.6547 19.1093 18.5052 18.9792ZM20.1985 17.2208C20.2479 16.752 20.2735 16.2695 20.2735 15.7778C20.2735 15.286 20.2479 14.8035 20.1985 14.3348C20.326 14.3769 20.4489 14.4207 20.5668 14.4661C21.1654 14.6963 21.6041 14.9541 21.8816 15.2064C22.1588 15.4586 22.2222 15.6526 22.2222 15.7778C22.2222 15.903 22.1588 16.097 21.8816 16.3491C21.6041 16.6014 21.1654 16.8593 20.5668 17.0895C20.4489 17.1349 20.326 17.1787 20.1985 17.2208Z" fill="#212121"/>
</svg>
