<svg width="32" height="32" viewBox="0 0 32 32" fill="none" xmlns="http://www.w3.org/2000/svg">
<path d="M7.6528 8.93013C8.21939 8.36848 8.87705 7.93721 9.62577 7.63633C10.3745 7.33544 11.1333 7.20506 11.9023 7.24518C13.3997 7.2853 14.6543 7.82689 15.6661 8.86996L16.0304 9.17084L16.3339 8.86996C17.3861 7.82689 18.6408 7.2853 20.0977 7.24518C20.8667 7.24518 21.6356 7.39562 22.4046 7.6965C23.1735 7.99739 23.8211 8.4086 24.3472 8.93013C25.0757 9.61214 25.5715 10.4847 25.8345 11.5478C26.0976 12.611 26.047 13.7042 25.6828 14.8275C25.278 16.1113 24.5496 17.2947 23.4973 18.3779L16.3339 25.2381H15.9696C15.8078 25.2381 15.6256 25.1579 15.4233 24.9974C15.0995 24.7567 14.452 24.1549 13.4807 23.1921L8.50269 18.3779C7.40997 17.2546 6.68148 16.0711 6.31724 14.8275C5.953 13.6641 5.90241 12.5608 6.16548 11.5177C6.42854 10.4747 6.92431 9.61214 7.6528 8.93013ZM9.65612 17.2346C12.7319 20.2033 14.8365 22.2292 15.9696 23.3124L22.3439 17.2346C23.2342 16.2717 23.8413 15.2888 24.1651 14.2859C24.4079 13.4434 24.4281 12.621 24.2258 11.8186C24.0234 11.0965 23.6794 10.5148 23.1938 10.0735C22.8295 9.71243 22.3843 9.42158 21.8582 9.20093C21.3321 8.98028 20.7857 8.86996 20.2191 8.86996H20.1584C19.1062 8.91007 18.2158 9.31125 17.4873 10.0735L17.3659 10.1337C17.285 10.2139 17.1534 10.3543 16.9713 10.5549C16.7892 10.7555 16.6374 10.8959 16.516 10.9762L15.9696 11.3372L15.484 10.9762C15.3626 10.8959 15.2108 10.7555 15.0287 10.5549C14.8466 10.3543 14.715 10.2139 14.6341 10.1337L14.5127 10.0735C13.7842 9.31125 12.9141 8.91007 11.9023 8.86996C11.3357 8.86996 10.7792 8.98028 10.2328 9.20093C9.68648 9.42158 9.1907 9.73249 8.74552 10.1337C8.30034 10.5349 7.9968 11.0965 7.83492 11.8186C7.59209 12.621 7.59209 13.4434 7.83492 14.2859C8.15869 15.2888 8.76576 16.2717 9.65612 17.2346Z" fill="#212121"/>
</svg>
