<svg width="32" height="32" viewBox="0 0 32 32" fill="none" xmlns="http://www.w3.org/2000/svg">
<path fill-rule="evenodd" clip-rule="evenodd" d="M14.407 9.33334C13.7408 9.33243 13.0809 9.46322 12.4654 9.71818C11.8498 9.97314 11.2907 10.3472 10.8203 10.819L10.8196 10.8196C9.90019 11.7391 9.33334 13.0064 9.33334 14.408L9.33334 14.4089C9.33243 15.0751 9.46322 15.735 9.71818 16.3505C9.97314 16.9661 10.3472 17.5252 10.819 17.9956L10.8203 17.9969C11.2907 18.4687 11.8498 18.8428 12.4654 19.0977C13.0809 19.3527 13.7408 19.4835 14.407 19.4826L14.4091 19.4826C15.3251 19.4842 16.2242 19.2364 17.0101 18.7658L17.6951 19.9098C16.7019 20.5045 16.2323 20.8177 15.0747 20.8159C14.233 20.8169 12.7327 20.6517 11.9551 20.3296C11.1775 20.0075 10.4712 19.5349 9.87682 18.9391C9.28096 18.3447 8.80842 17.6384 8.48633 16.8608C8.16419 16.083 7.99892 15.2493 8.00001 14.4075C8.00013 12.6385 8.71746 11.0363 9.87651 9.87714C10.471 9.28113 11.1774 8.80848 11.9551 8.48633C12.7329 8.16419 13.5666 7.99892 14.4084 8.00001C16.1774 8.00013 17.7796 8.71746 18.9388 9.87651C19.5348 10.471 20.0074 11.1774 20.3296 11.9551C20.6517 12.7327 20.8169 13.5663 20.8159 14.4079C20.8174 15.5447 20.5154 16.6614 19.9412 17.6425C19.6373 18.1611 19.7064 18.7635 20.0831 19.1403L23.3603 22.4175L22.4175 23.3603L19.1403 20.0831C18.2871 19.2299 18.2152 17.9505 18.7907 16.9687C19.245 16.1922 19.4839 15.3085 19.4826 14.4089V14.407C19.4835 13.7408 19.3527 13.0809 19.0977 12.4654C18.8428 11.8498 18.4687 11.2907 17.9969 10.8203L17.9963 10.8196C17.0768 9.90019 15.8095 9.33334 14.408 9.33334L14.407 9.33334ZM20.8159 14.4079L20.8159 14.4089V14.407L20.8159 14.4079Z" fill="#212121"/>
</svg>
