<svg width="21" height="20" viewBox="0 0 21 20" fill="none" xmlns="http://www.w3.org/2000/svg">
<path d="M15.717 5.58133C15.3629 5.23029 14.9518 4.96075 14.4839 4.7727C14.0159 4.58464 13.5417 4.50315 13.0611 4.52823C12.1252 4.5533 11.341 4.8918 10.7087 5.54371L10.481 5.73177L10.2913 5.54371C9.63366 4.8918 8.84953 4.5533 7.93893 4.52823C7.45833 4.52823 6.97773 4.62225 6.49714 4.81031C6.01654 4.99836 5.61183 5.25537 5.283 5.58133C4.8277 6.00758 4.51784 6.55293 4.35342 7.21739C4.18901 7.88184 4.22063 8.5651 4.44828 9.26717C4.70122 10.0695 5.15652 10.8092 5.81418 11.4862L10.2913 15.7738H10.519C10.6201 15.7738 10.734 15.7237 10.8604 15.6234C11.0628 15.4729 11.4675 15.0968 12.0746 14.495L15.1858 11.4862C15.8688 10.7841 16.3241 10.0445 16.5517 9.26717C16.7794 8.54003 16.811 7.8505 16.6466 7.19858C16.4822 6.54666 16.1723 6.00758 15.717 5.58133ZM14.4649 10.7716C12.5425 12.627 11.2272 13.8933 10.519 14.5703L6.53508 10.7716C5.9786 10.1698 5.59918 9.55551 5.39682 8.92867C5.24506 8.40212 5.23241 7.88811 5.35888 7.38663C5.48535 6.93531 5.70036 6.57174 6.00389 6.29593C6.23154 6.07026 6.50978 5.88848 6.83861 5.75057C7.16744 5.61267 7.50892 5.54371 7.86304 5.54371H7.90098C8.55864 5.56879 9.11512 5.81953 9.57042 6.29593L9.64631 6.33354C9.6969 6.38369 9.7791 6.47144 9.89293 6.59681C10.0068 6.72218 10.1016 6.80994 10.1775 6.86009L10.519 7.08575L10.8225 6.86009C10.8984 6.80994 10.9932 6.72218 11.1071 6.59681C11.2209 6.47144 11.3031 6.38369 11.3537 6.33354L11.4296 6.29593C11.8849 5.81953 12.4287 5.56879 13.0611 5.54371C13.4152 5.54371 13.763 5.61267 14.1045 5.75057C14.446 5.88848 14.7558 6.0828 15.034 6.33354C15.3123 6.58428 15.502 6.93531 15.6032 7.38663C15.7549 7.88811 15.7549 8.40212 15.6032 8.92867C15.4008 9.55551 15.0214 10.1698 14.4649 10.7716Z" fill="#212121"/>
</svg>
