<svg width="172" height="52" viewBox="0 0 172 52" fill="none" xmlns="http://www.w3.org/2000/svg">
<path d="M159.869 25.303C166.564 25.303 171.428 29.8785 171.428 37.9217C171.428 45.965 166.564 50.5405 159.869 50.5405C153.175 50.5405 148.31 45.965 148.31 37.9217C148.31 29.8785 153.175 25.303 159.869 25.303ZM159.869 29.156C155.342 29.156 152.693 31.9977 152.693 37.9217C152.693 43.8458 155.342 46.6874 159.869 46.6874C164.397 46.6874 167.046 43.8458 167.046 37.9217C167.046 31.9977 164.397 29.156 159.869 29.156Z" fill="#9836FC"/>
<path d="M133.391 25.303C138.978 25.303 143.12 28.5299 143.987 34.1168H139.46C139.315 31.2271 136.859 29.156 133.439 29.156C129.394 29.156 126.119 32.0458 126.119 37.9217C126.119 43.7977 129.394 46.6874 133.488 46.6874C137.1 46.6874 139.556 44.4238 139.653 41.7748H144.18C143.313 47.5062 139.075 50.5405 133.439 50.5405C126.408 50.5405 121.736 45.8205 121.736 38.0181C121.736 29.9748 126.648 25.303 133.391 25.303Z" fill="#9836FC"/>
<path d="M117.982 46.1095L118.56 49.4809C117.741 50.107 116.633 50.4442 115.525 50.4442C113.31 50.4442 111.913 49.0956 111.576 46.5911C110.179 48.9993 107.338 50.5405 103.966 50.5405C99.3907 50.5405 95.6821 47.6507 95.6821 42.9789C95.6821 38.4997 99.1017 36.0915 104.592 35.5136C106.904 35.2728 109.409 35.3691 111.48 35.6581V34.9356C111.48 31.1307 109.36 28.9634 105.989 28.9634C102.81 28.9634 100.691 30.9381 100.643 33.5871H96.3564C97.0789 28.7707 100.595 25.303 105.989 25.303C111.48 25.303 115.574 28.8671 115.574 34.9356V45.0017C115.574 46.3021 116.151 46.7838 116.826 46.7838C117.259 46.7838 117.741 46.543 117.982 46.1095ZM104.833 46.7356C107.819 46.7356 111.48 45.0499 111.48 41.8711V37.7291L104.833 38.6924C101.895 39.1258 100.017 40.6189 100.017 42.9307C100.017 45.387 102.184 46.7356 104.833 46.7356Z" fill="#9836FC"/>
<path d="M82.2273 25.303C86.6101 25.303 90.3187 28.7226 90.3187 34.0205V49.9625H86.0803V34.0205C86.0803 30.8899 84.1538 29.156 81.2158 29.156C78.6632 29.156 75.966 30.5046 73.7987 32.7683V49.9625H69.5603V31.6605L68.8379 25.8809H73.3171L73.7024 30.312C76.0624 27.1813 78.9522 25.303 82.2273 25.303Z" fill="#9836FC"/>
<path d="M52.443 25.303C59.1376 25.303 64.0021 29.8785 64.0021 37.9217C64.0021 45.965 59.1376 50.5405 52.443 50.5405C45.7483 50.5405 40.8838 45.965 40.8838 37.9217C40.8838 29.8785 45.7483 25.303 52.443 25.303ZM52.443 29.156C47.9156 29.156 45.2666 31.9977 45.2666 37.9217C45.2666 43.8458 47.9156 46.6874 52.443 46.6874C56.9703 46.6874 59.6193 43.8458 59.6193 37.9217C59.6193 31.9977 56.9703 29.156 52.443 29.156Z" fill="#9836FC"/>
<path d="M28.6089 16.4891H35.2073V49.9625H30.8245V19.716C30.5355 22.076 29.9575 24.8213 29.1387 26.9405L20.1804 49.9625H15.0751L6.11673 26.9405C5.24979 24.725 4.62367 21.7871 4.38285 19.3789V49.9625H0V16.4891H6.5502L16.0384 40.956C17.0498 43.5568 17.4832 45.676 17.6759 47.4581C17.8686 45.5797 18.3983 43.2679 19.2653 40.956L28.6089 16.4891Z" fill="#9836FC"/>
<path d="M51.9956 13.3597C52.8899 13.3597 53.626 12.8943 53.7254 12.293L54.6082 2.29879C54.6082 1.31095 53.4521 0.5 51.9985 0.5C50.5462 0.5 49.3912 1.31095 49.3912 2.29896L50.2735 12.293C50.3706 12.8941 51.1067 13.3597 51.9986 13.3597H51.9956ZM46.5991 16.4814C47.0477 15.7071 47.0138 14.837 46.541 14.4504L38.334 8.68798C37.4807 8.19335 36.2013 8.78872 35.4752 10.0492C34.7465 11.3081 34.8757 12.714 35.7267 13.2088L44.8143 17.444C45.3824 17.6548 46.157 17.2492 46.602 16.4755L46.5991 16.4814ZM57.3969 16.476C57.8448 17.2497 58.6154 17.6555 59.184 17.4446L68.2716 13.2094C69.128 12.7147 69.2496 11.3086 68.5278 10.0497C67.7981 8.7905 66.5164 8.19388 65.6654 8.68851L57.4578 14.4509C56.9886 14.837 56.9537 15.7078 57.3998 16.4819L57.3969 16.476Z" fill="#FDBB30"/>
</svg>
